<svg xmlns="http://www.w3.org/2000/svg" width="20.999" height="21.998" viewBox="0 0 20.999 21.998">
  <path id="calendar-grey" d="M899.019,1575.415a.838.838,0,0,0,.841-.835v-2.745a.841.841,0,0,0-1.682,0v2.745A.838.838,0,0,0,899.019,1575.415Zm-9.042,0a.838.838,0,0,0,.841-.835v-2.745a.841.841,0,0,0-1.681,0v2.745A.838.838,0,0,0,889.977,1575.415Zm13.9-2.375h-3.008v1.54a1.85,1.85,0,0,1-3.7,0v-1.54h-5.343v1.54a1.85,1.85,0,0,1-3.7,0v-1.54h-3.008a1.117,1.117,0,0,0-1.121,1.113v3.9h21v-3.9A1.117,1.117,0,0,0,903.876,1573.04ZM884,1591.885a1.117,1.117,0,0,0,1.121,1.113h18.757a1.117,1.117,0,0,0,1.121-1.113V1578.94H884Z" transform="translate(-883.998 -1571)" fill="#809fb8"/>
</svg>
