<svg xmlns="http://www.w3.org/2000/svg" width="26" height="28.001" viewBox="0 0 26 28.001">
  <path id="calendar-blue" d="M979.9,321a3.86,3.86,0,0,1-3.9-3.819V299.363a3.859,3.859,0,0,1,3.9-3.818h2.6V294a1,1,0,0,1,1-1h.6a1,1,0,0,1,1,1v1.545h7.8V294a1,1,0,0,1,1-1h.6a1,1,0,0,1,1,1v1.545h2.6a3.859,3.859,0,0,1,3.9,3.818v17.818A3.86,3.86,0,0,1,998.1,321Zm-1.3-3.819a1.287,1.287,0,0,0,1.3,1.273h18.2a1.287,1.287,0,0,0,1.3-1.273V305.727H978.6Zm20.8-14v-3.819a1.287,1.287,0,0,0-1.3-1.273h-2.6v1.545a1,1,0,0,1-1,1h-.6a1,1,0,0,1-1-1v-1.545h-7.8v1.545a1,1,0,0,1-1,1h-.6a1,1,0,0,1-1-1v-1.545h-2.6a1.287,1.287,0,0,0-1.3,1.273v3.819Z" transform="translate(-976 -293)" fill="#005d6e"/>
</svg>
